ffmpeg started on 2026-03-28 at 16:19:28
Report written to "D:\Convert\FFMetrics\reports\ssim_report-6.txt"
Log level: 32
Command line:
ffmpeg -hide_banner -nostdin -r 24000/1001 -i "F:\\\xc0\xed\xe8\xec\xe5\\\xce\xed\xe3\xee\xe8\xed\xe3\xe8\\!_40_\xce\xf1\xe5\xed\xfc_2025\\JamClub\\\xcc\xeb\xe0\xe4\xf8\xe0\xff \xf1\xe5\xf1\xf2\xf0\xe0 \xec\xee\xe5\xe3\xee \xe4\xf0\xf3\xe3\xe0 \xe4\xee\xf1\xe0\xe6\xe4\xe0\xe5\xf2\\JamClub_Tomodachi_no_Imouto_ga_Ore_ni_dake_Uzai_11_1080p_HEVC.mkv" -r 24000/1001 -i "F:\\\xc0\xed\xe8\xec\xe5\\\xce\xed\xe3\xee\xe8\xed\xe3\xe8\\!_40_\xce\xf1\xe5\xed\xfc_2025\\JamClub\\\xcc\xeb\xe0\xe4\xf8\xe0\xff \xf1\xe5\xf1\xf2\xf0\xe0 \xec\xee\xe5\xe3\xee \xe4\xf0\xf3\xe3\xe0 \xe4\xee\xf1\xe0\xe6\xe4\xe0\xe5\xf2\\JamClub_Tomodachi_no_Imouto_ga_Ore_ni_dake_Uzai_11_1080p.mp4" -lavfi "[0:v]settb=AVTB,setpts=PTS-STARTPTS,format=pix_fmts=yuv420p10le,fps=24000/1001,scale=1920:1080:flags=lanczos:param0=3:out_range=limited:out_color_matrix=bt709:out_chroma_loc=left,setsar=1/1,setdar=(1920/1080)*(1/1),colorspace=format=yuv420p10:range=tv:primaries=bt709:trc=bt709:space=bt709:fast=0[main];[1:v]settb=AVTB,setpts=PTS-STARTPTS,format=pix_fmts=yuv420p,fps=24000/1001,scale=1920:1080:flags=lanczos:param0=3:out_range=limited:out_color_matrix=bt709:out_chroma_loc=left,setsar=1/1,setdar=(1920/1080)*(1/1),colorspace=format=yuv420p:range=tv:primaries=bt709:trc=bt709:space=bt709:fast=0[ref];[main][ref]ssim=eof_action=endall:stats_file='D\\:/Convert/FFMetrics/logs/ssim_logfile-6.txt'" -f null -
Input #0, matroska,webm, from 'F:\Аниме\Онгоинги\!_40_Осень_2025\JamClub\Младшая сестра моего друга досаждает\JamClub_Tomodachi_no_Imouto_ga_Ore_ni_dake_Uzai_11_1080p_HEVC.mkv':
  Metadata:
    COMPATIBLE_BRANDS: isomiso2avc1mp41
    MAJOR_BRAND     : isom
    MINOR_VERSION   : 512
    ENCODER         : Lavf61.7.100
  Duration: 00:23:49.53, start: -0.021000, bitrate: 966 kb/s
  Stream #0:0: Video: hevc (Main 10), yuv420p10le(tv, bt709, progressive), 1920x1080 [SAR 1:1 DAR 16:9], 23.98 fps, 23.98 tbr, 1k tbn (default)
      Metadata:
        HANDLER_NAME    : VideoHandler
        VENDOR_ID       : [0][0][0][0]
        ENCODER         : Lavc61.19.100 libx265
        BPS             : 771088
        DURATION        : 00:23:49.427708333
        NUMBER_OF_FRAMES: 34272
        NUMBER_OF_BYTES : 137776813
        _STATISTICS_WRITING_APP: mkvpropedit v94.0 ('Initiate') 64-bit
        _STATISTICS_WRITING_DATE_UTC: 2026-03-28 11:34:06
        _STATISTICS_TAGS: BPS DURATION NUMBER_OF_FRAMES NUMBER_OF_BYTES
  Stream #0:1(eng): Audio: aac (LC), 48000 Hz, stereo, fltp (default)
      Metadata:
        HANDLER_NAME    : SoundHandler
        VENDOR_ID       : [0][0][0][0]
        ENCODER         : Lavc61.19.100 aac
        BPS             : 191356
        DURATION        : 00:23:49.507000000
        NUMBER_OF_FRAMES: 67009
        NUMBER_OF_BYTES : 34193115
        _STATISTICS_WRITING_APP: mkvpropedit v94.0 ('Initiate') 64-bit
        _STATISTICS_WRITING_DATE_UTC: 2026-03-28 11:34:06
        _STATISTICS_TAGS: BPS DURATION NUMBER_OF_FRAMES NUMBER_OF_BYTES
Input #1, mov,mp4,m4a,3gp,3g2,mj2, from 'F:\Аниме\Онгоинги\!_40_Осень_2025\JamClub\Младшая сестра моего друга досаждает\JamClub_Tomodachi_no_Imouto_ga_Ore_ni_dake_Uzai_11_1080p.mp4':
  Metadata:
    major_brand     : isom
    minor_version   : 512
    compatible_brands: isomiso2avc1mp41
    encoder         : Lavf60.16.100
  Duration: 00:23:49.51, start: 0.000000, bitrate: 3399 kb/s
  Stream #1:0[0x1](und): Video: h264 (High) (avc1 / 0x31637661), yuv420p(tv, bt709, progressive), 1920x1080 [SAR 1:1 DAR 16:9], 3201 kb/s, 23.98 fps, 23.98 tbr, 90k tbn (default)
      Metadata:
        handler_name    : VideoHandler
        vendor_id       : [0][0][0][0]
  Stream #1:1[0x2](eng): Audio: aac (LC) (mp4a / 0x6134706D), 48000 Hz, stereo, fltp, 191 kb/s (default)
      Metadata:
        handler_name    : SoundHandler
        vendor_id       : [0][0][0][0]
Stream mapping:
  Stream #0:0 (hevc) -> settb:default
  Stream #1:0 (h264) -> settb:default
  ssim:default -> Stream #0:0 (wrapped_avframe)
  Stream #0:1 -> #0:1 (aac (native) -> pcm_s16le (native))
Output #0, null, to 'pipe:':
  Metadata:
    COMPATIBLE_BRANDS: isomiso2avc1mp41
    MAJOR_BRAND     : isom
    MINOR_VERSION   : 512
    encoder         : Lavf61.7.100
  Stream #0:0: Video: wrapped_avframe, yuv420p10le(tv, bt709, progressive), 1920x1080 [SAR 1:1 DAR 16:9], q=2-31, 200 kb/s, 23.98 fps, 23.98 tbn
      Metadata:
        encoder         : Lavc61.19.100 wrapped_avframe
  Stream #0:1(eng): Audio: pcm_s16le, 48000 Hz, stereo, s16, 1536 kb/s (default)
      Metadata:
        HANDLER_NAME    : SoundHandler
        VENDOR_ID       : [0][0][0][0]
        _STATISTICS_TAGS: BPS DURATION NUMBER_OF_FRAMES NUMBER_OF_BYTES
        BPS             : 191356
        DURATION        : 00:23:49.507000000
        NUMBER_OF_FRAMES: 67009
        NUMBER_OF_BYTES : 34193115
        _STATISTICS_WRITING_APP: mkvpropedit v94.0 ('Initiate') 64-bit
        _STATISTICS_WRITING_DATE_UTC: 2026-03-28 11:34:06
        encoder         : Lavc61.19.100 pcm_s16le
frame=  111 fps=0.0 q=-0.0 size=N/A time=00:00:04.62 bitrate=N/A speed=8.91x    frame=  255 fps=247 q=-0.0 size=N/A time=00:00:10.63 bitrate=N/A speed=10.3x    frame=  419 fps=272 q=-0.0 size=N/A time=00:00:17.47 bitrate=N/A speed=11.3x    frame=  603 fps=291 q=-0.0 size=N/A time=00:00:25.15 bitrate=N/A speed=12.2x    frame=  796 fps=308 q=-0.0 size=N/A time=00:00:33.19 bitrate=N/A speed=12.9x    frame=  997 fps=322 q=-0.0 size=N/A time=00:00:41.58 bitrate=N/A speed=13.4x    frame= 1192 fps=331 q=-0.0 size=N/A time=00:00:49.71 bitrate=N/A speed=13.8x    frame= 1386 fps=336 q=-0.0 size=N/A time=00:00:57.80 bitrate=N/A speed=  14x    frame= 1569 fps=338 q=-0.0 size=N/A time=00:01:05.44 bitrate=N/A speed=14.1x    frame= 1759 fps=341 q=-0.0 size=N/A time=00:01:13.36 bitrate=N/A speed=14.2x    frame= 1904 fps=336 q=-0.0 size=N/A time=00:01:19.41 bitrate=N/A speed=  14x    frame= 2050 fps=331 q=-0.0 size=N/A time=00:01:25.50 bitrate=N/A speed=13.8x    frame= 2214 fps=330 q=-0.0 size=N/A time=00:01:32.34 bitrate=N/A speed=13.8x    frame= 2358 fps=327 q=-0.0 size=N/A time=00:01:38.34 bitrate=N/A speed=13.6x    frame= 2549 fps=329 q=-0.0 size=N/A time=00:01:46.31 bitrate=N/A speed=13.7x    frame= 2700 fps=327 q=-0.0 size=N/A time=00:01:52.61 bitrate=N/A speed=13.6x    frame= 2879 fps=328 q=-0.0 size=N/A time=00:02:00.07 bitrate=N/A speed=13.7x    frame= 3043 fps=328 q=-0.0 size=N/A time=00:02:06.91 bitrate=N/A speed=13.7x    frame= 3212 fps=328 q=-0.0 size=N/A time=00:02:13.96 bitrate=N/A speed=13.7x    frame= 3337 fps=324 q=-0.0 size=N/A time=00:02:19.18 bitrate=N/A speed=13.5x    frame= 3476 fps=321 q=-0.0 size=N/A time=00:02:24.97 bitrate=N/A speed=13.4x    frame= 3631 fps=320 q=-0.0 size=N/A time=00:02:31.44 bitrate=N/A speed=13.4x    frame= 3790 fps=319 q=-0.0 size=N/A time=00:02:38.07 bitrate=N/A speed=13.3x    frame= 3950 fps=319 q=-0.0 size=N/A time=00:02:44.74 bitrate=N/A speed=13.3x    frame= 4139 fps=321 q=-0.0 size=N/A time=00:02:52.63 bitrate=N/A speed=13.4x    frame= 4309 fps=322 q=-0.0 size=N/A time=00:02:59.72 bitrate=N/A speed=13.4x    frame= 4509 fps=324 q=-0.0 size=N/A time=00:03:08.06 bitrate=N/A speed=13.5x    frame= 4687 fps=325 q=-0.0 size=N/A time=00:03:15.48 bitrate=N/A speed=13.5x    frame= 4877 fps=326 q=-0.0 size=N/A time=00:03:23.41 bitrate=N/A speed=13.6x    frame= 5061 fps=327 q=-0.0 size=N/A time=00:03:31.08 bitrate=N/A speed=13.6x    frame= 5255 fps=329 q=-0.0 size=N/A time=00:03:39.17 bitrate=N/A speed=13.7x    frame= 5447 fps=330 q=-0.0 size=N/A time=00:03:47.18 bitrate=N/A speed=13.8x    frame= 5640 fps=332 q=-0.0 size=N/A time=00:03:55.23 bitrate=N/A speed=13.8x    frame= 5829 fps=332 q=-0.0 size=N/A time=00:04:03.11 bitrate=N/A speed=13.9x    frame= 6013 fps=333 q=-0.0 size=N/A time=00:04:10.79 bitrate=N/A speed=13.9x    frame= 6209 fps=334 q=-0.0 size=N/A time=00:04:18.96 bitrate=N/A speed=  14x    frame= 6401 fps=336 q=-0.0 size=N/A time=00:04:26.97 bitrate=N/A speed=  14x    frame= 6598 fps=337 q=-0.0 size=N/A time=00:04:35.19 bitrate=N/A speed=  14x    frame= 6788 fps=338 q=-0.0 size=N/A time=00:04:43.11 bitrate=N/A speed=14.1x    frame= 6982 fps=339 q=-0.0 size=N/A time=00:04:51.20 bitrate=N/A speed=14.1x    frame= 7178 fps=339 q=-0.0 size=N/A time=00:04:59.38 bitrate=N/A speed=14.2x    frame= 7368 fps=340 q=-0.0 size=N/A time=00:05:07.30 bitrate=N/A speed=14.2x    frame= 7564 fps=341 q=-0.0 size=N/A time=00:05:15.48 bitrate=N/A speed=14.2x    frame= 7755 fps=342 q=-0.0 size=N/A time=00:05:23.44 bitrate=N/A speed=14.3x    frame= 7950 fps=343 q=-0.0 size=N/A time=00:05:31.58 bitrate=N/A speed=14.3x    frame= 8134 fps=343 q=-0.0 size=N/A time=00:05:39.25 bitrate=N/A speed=14.3x    frame= 8332 fps=344 q=-0.0 size=N/A time=00:05:47.51 bitrate=N/A speed=14.3x    frame= 8526 fps=344 q=-0.0 size=N/A time=00:05:55.60 bitrate=N/A speed=14.4x    frame= 8716 fps=345 q=-0.0 size=N/A time=00:06:03.52 bitrate=N/A speed=14.4x    frame= 8894 fps=345 q=-0.0 size=N/A time=00:06:10.95 bitrate=N/A speed=14.4x    frame= 9072 fps=345 q=-0.0 size=N/A time=00:06:18.37 bitrate=N/A speed=14.4x    frame= 9252 fps=345 q=-0.0 size=N/A time=00:06:25.88 bitrate=N/A speed=14.4x    frame= 9442 fps=346 q=-0.0 size=N/A time=00:06:33.81 bitrate=N/A speed=14.4x    frame= 9636 fps=346 q=-0.0 size=N/A time=00:06:41.90 bitrate=N/A speed=14.4x    frame= 9821 fps=346 q=-0.0 size=N/A time=00:06:49.61 bitrate=N/A speed=14.4x    frame=10006 fps=347 q=-0.0 size=N/A time=00:06:57.33 bitrate=N/A speed=14.5x    frame=10207 fps=347 q=-0.0 size=N/A time=00:07:05.71 bitrate=N/A speed=14.5x    frame=10389 fps=347 q=-0.0 size=N/A time=00:07:13.30 bitrate=N/A speed=14.5x    frame=10579 fps=348 q=-0.0 size=N/A time=00:07:21.23 bitrate=N/A speed=14.5x    frame=10776 fps=348 q=-0.0 size=N/A time=00:07:29.44 bitrate=N/A speed=14.5x    frame=10977 fps=349 q=-0.0 size=N/A time=00:07:37.83 bitrate=N/A speed=14.5x    frame=11158 fps=349 q=-0.0 size=N/A time=00:07:45.38 bitrate=N/A speed=14.5x    frame=11348 fps=349 q=-0.0 size=N/A time=00:07:53.30 bitrate=N/A speed=14.6x    frame=11552 fps=350 q=-0.0 size=N/A time=00:08:01.81 bitrate=N/A speed=14.6x    frame=11741 fps=350 q=-0.0 size=N/A time=00:08:09.69 bitrate=N/A speed=14.6x    frame=11931 fps=350 q=-0.0 size=N/A time=00:08:17.62 bitrate=N/A speed=14.6x    frame=12135 fps=351 q=-0.0 size=N/A time=00:08:26.13 bitrate=N/A speed=14.6x    frame=12327 fps=351 q=-0.0 size=N/A time=00:08:34.13 bitrate=N/A speed=14.7x    frame=12516 fps=352 q=-0.0 size=N/A time=00:08:42.02 bitrate=N/A speed=14.7x    frame=12722 fps=352 q=-0.0 size=N/A time=00:08:50.61 bitrate=N/A speed=14.7x    frame=12905 fps=352 q=-0.0 size=N/A time=00:08:58.24 bitrate=N/A speed=14.7x    frame=13106 fps=353 q=-0.0 size=N/A time=00:09:06.62 bitrate=N/A speed=14.7x    frame=13285 fps=353 q=-0.0 size=N/A time=00:09:14.09 bitrate=N/A speed=14.7x    frame=13488 fps=353 q=-0.0 size=N/A time=00:09:22.56 bitrate=N/A speed=14.7x    frame=13679 fps=354 q=-0.0 size=N/A time=00:09:30.52 bitrate=N/A speed=14.7x    frame=13867 fps=354 q=-0.0 size=N/A time=00:09:38.36 bitrate=N/A speed=14.7x    frame=14055 fps=354 q=-0.0 size=N/A time=00:09:46.21 bitrate=N/A speed=14.8x    frame=14242 fps=354 q=-0.0 size=N/A time=00:09:54.01 bitrate=N/A speed=14.8x    frame=14430 fps=354 q=-0.0 size=N/A time=00:10:01.85 bitrate=N/A speed=14.8x    frame=14623 fps=354 q=-0.0 size=N/A time=00:10:09.90 bitrate=N/A speed=14.8x    frame=14815 fps=354 q=-0.0 size=N/A time=00:10:17.90 bitrate=N/A speed=14.8x    frame=15005 fps=355 q=-0.0 size=N/A time=00:10:25.83 bitrate=N/A speed=14.8x    frame=15198 fps=355 q=-0.0 size=N/A time=00:10:33.88 bitrate=N/A speed=14.8x    frame=15378 fps=355 q=-0.0 size=N/A time=00:10:41.39 bitrate=N/A speed=14.8x    frame=15559 fps=355 q=-0.0 size=N/A time=00:10:48.93 bitrate=N/A speed=14.8x    frame=15752 fps=355 q=-0.0 size=N/A time=00:10:56.98 bitrate=N/A speed=14.8x    frame=15942 fps=355 q=-0.0 size=N/A time=00:11:04.91 bitrate=N/A speed=14.8x    frame=16125 fps=355 q=-0.0 size=N/A time=00:11:12.54 bitrate=N/A speed=14.8x    frame=16315 fps=355 q=-0.0 size=N/A time=00:11:20.47 bitrate=N/A speed=14.8x    frame=16521 fps=356 q=-0.0 size=N/A time=00:11:29.06 bitrate=N/A speed=14.8x    frame=16706 fps=356 q=-0.0 size=N/A time=00:11:36.77 bitrate=N/A speed=14.8x    frame=16902 fps=356 q=-0.0 size=N/A time=00:11:44.95 bitrate=N/A speed=14.8x    frame=17102 fps=356 q=-0.0 size=N/A time=00:11:53.29 bitrate=N/A speed=14.9x    frame=17304 fps=357 q=-0.0 size=N/A time=00:12:01.72 bitrate=N/A speed=14.9x    frame=17496 fps=357 q=-0.0 size=N/A time=00:12:09.72 bitrate=N/A speed=14.9x    frame=17685 fps=357 q=-0.0 size=N/A time=00:12:17.61 bitrate=N/A speed=14.9x    frame=17879 fps=357 q=-0.0 size=N/A time=00:12:25.70 bitrate=N/A speed=14.9x    frame=18066 fps=357 q=-0.0 size=N/A time=00:12:33.50 bitrate=N/A speed=14.9x    frame=18249 fps=357 q=-0.0 size=N/A time=00:12:41.13 bitrate=N/A speed=14.9x    frame=18435 fps=357 q=-0.0 size=N/A time=00:12:48.89 bitrate=N/A speed=14.9x    frame=18613 fps=357 q=-0.0 size=N/A time=00:12:56.31 bitrate=N/A speed=14.9x    frame=18792 fps=357 q=-0.0 size=N/A time=00:13:03.78 bitrate=N/A speed=14.9x    frame=18995 fps=357 q=-0.0 size=N/A time=00:13:12.24 bitrate=N/A speed=14.9x    frame=19194 fps=357 q=-0.0 size=N/A time=00:13:20.54 bitrate=N/A speed=14.9x    frame=19391 fps=358 q=-0.0 size=N/A time=00:13:28.76 bitrate=N/A speed=14.9x    frame=19587 fps=358 q=-0.0 size=N/A time=00:13:36.94 bitrate=N/A speed=14.9x    frame=19786 fps=358 q=-0.0 size=N/A time=00:13:45.24 bitrate=N/A speed=14.9x    frame=19979 fps=358 q=-0.0 size=N/A time=00:13:53.29 bitrate=N/A speed=14.9x    frame=20174 fps=358 q=-0.0 size=N/A time=00:14:01.42 bitrate=N/A speed=  15x    frame=20371 fps=359 q=-0.0 size=N/A time=00:14:09.64 bitrate=N/A speed=  15x    frame=20571 fps=359 q=-0.0 size=N/A time=00:14:17.98 bitrate=N/A speed=  15x    frame=20776 fps=359 q=-0.0 size=N/A time=00:14:26.53 bitrate=N/A speed=  15x    frame=20979 fps=360 q=-0.0 size=N/A time=00:14:34.99 bitrate=N/A speed=  15x    frame=21176 fps=360 q=-0.0 size=N/A time=00:14:43.21 bitrate=N/A speed=  15x    frame=21380 fps=360 q=-0.0 size=N/A time=00:14:51.72 bitrate=N/A speed=  15x    frame=21577 fps=360 q=-0.0 size=N/A time=00:14:59.94 bitrate=N/A speed=  15x    frame=21781 fps=361 q=-0.0 size=N/A time=00:15:08.44 bitrate=N/A speed=  15x    frame=21968 fps=361 q=-0.0 size=N/A time=00:15:16.24 bitrate=N/A speed=  15x    frame=22164 fps=361 q=-0.0 size=N/A time=00:15:24.42 bitrate=N/A speed=  15x    frame=22365 fps=361 q=-0.0 size=N/A time=00:15:32.80 bitrate=N/A speed=15.1x    frame=22560 fps=361 q=-0.0 size=N/A time=00:15:40.94 bitrate=N/A speed=15.1x    frame=22749 fps=361 q=-0.0 size=N/A time=00:15:48.82 bitrate=N/A speed=15.1x    frame=22936 fps=361 q=-0.0 size=N/A time=00:15:56.62 bitrate=N/A speed=15.1x    frame=23135 fps=361 q=-0.0 size=N/A time=00:16:04.92 bitrate=N/A speed=15.1x    frame=23318 fps=361 q=-0.0 size=N/A time=00:16:12.55 bitrate=N/A speed=15.1x    frame=23506 fps=361 q=-0.0 size=N/A time=00:16:20.39 bitrate=N/A speed=15.1x    frame=23693 fps=361 q=-0.0 size=N/A time=00:16:28.19 bitrate=N/A speed=15.1x    frame=23879 fps=361 q=-0.0 size=N/A time=00:16:35.95 bitrate=N/A speed=15.1x    frame=24068 fps=361 q=-0.0 size=N/A time=00:16:43.83 bitrate=N/A speed=15.1x    frame=24249 fps=361 q=-0.0 size=N/A time=00:16:51.38 bitrate=N/A speed=15.1x    frame=24434 fps=361 q=-0.0 size=N/A time=00:16:59.10 bitrate=N/A speed=15.1x    frame=24619 fps=361 q=-0.0 size=N/A time=00:17:06.81 bitrate=N/A speed=15.1x    frame=24809 fps=361 q=-0.0 size=N/A time=00:17:14.74 bitrate=N/A speed=15.1x    frame=24998 fps=361 q=-0.0 size=N/A time=00:17:22.62 bitrate=N/A speed=15.1x    frame=25180 fps=361 q=-0.0 size=N/A time=00:17:30.21 bitrate=N/A speed=15.1x    frame=25375 fps=361 q=-0.0 size=N/A time=00:17:38.34 bitrate=N/A speed=15.1x    frame=25568 fps=362 q=-0.0 size=N/A time=00:17:46.39 bitrate=N/A speed=15.1x    frame=25758 fps=362 q=-0.0 size=N/A time=00:17:54.32 bitrate=N/A speed=15.1x    frame=25952 fps=362 q=-0.0 size=N/A time=00:18:02.41 bitrate=N/A speed=15.1x    frame=26132 fps=362 q=-0.0 size=N/A time=00:18:09.92 bitrate=N/A speed=15.1x    frame=26323 fps=362 q=-0.0 size=N/A time=00:18:17.88 bitrate=N/A speed=15.1x    frame=26502 fps=362 q=-0.0 size=N/A time=00:18:25.35 bitrate=N/A speed=15.1x    frame=26681 fps=362 q=-0.0 size=N/A time=00:18:32.82 bitrate=N/A speed=15.1x    frame=26863 fps=361 q=-0.0 size=N/A time=00:18:40.41 bitrate=N/A speed=15.1x    frame=27054 fps=361 q=-0.0 size=N/A time=00:18:48.37 bitrate=N/A speed=15.1x    frame=27231 fps=361 q=-0.0 size=N/A time=00:18:55.75 bitrate=N/A speed=15.1x    frame=27422 fps=361 q=-0.0 size=N/A time=00:19:03.72 bitrate=N/A speed=15.1x    frame=27599 fps=361 q=-0.0 size=N/A time=00:19:11.10 bitrate=N/A speed=15.1x    frame=27798 fps=361 q=-0.0 size=N/A time=00:19:19.40 bitrate=N/A speed=15.1x    frame=27977 fps=361 q=-0.0 size=N/A time=00:19:26.87 bitrate=N/A speed=15.1x    frame=28162 fps=361 q=-0.0 size=N/A time=00:19:34.59 bitrate=N/A speed=15.1x    frame=28349 fps=361 q=-0.0 size=N/A time=00:19:42.38 bitrate=N/A speed=15.1x    frame=28535 fps=361 q=-0.0 size=N/A time=00:19:50.14 bitrate=N/A speed=15.1x    frame=28731 fps=361 q=-0.0 size=N/A time=00:19:58.32 bitrate=N/A speed=15.1x    frame=28912 fps=361 q=-0.0 size=N/A time=00:20:05.87 bitrate=N/A speed=15.1x    frame=29102 fps=361 q=-0.0 size=N/A time=00:20:13.79 bitrate=N/A speed=15.1x    frame=29292 fps=362 q=-0.0 size=N/A time=00:20:21.72 bitrate=N/A speed=15.1x    frame=29481 fps=361 q=-0.0 size=N/A time=00:20:29.60 bitrate=N/A speed=15.1x    frame=29671 fps=362 q=-0.0 size=N/A time=00:20:37.52 bitrate=N/A speed=15.1x    frame=29861 fps=362 q=-0.0 size=N/A time=00:20:45.45 bitrate=N/A speed=15.1x    frame=30049 fps=362 q=-0.0 size=N/A time=00:20:53.29 bitrate=N/A speed=15.1x    frame=30231 fps=362 q=-0.0 size=N/A time=00:21:00.88 bitrate=N/A speed=15.1x    frame=30409 fps=361 q=-0.0 size=N/A time=00:21:08.30 bitrate=N/A speed=15.1x    frame=30599 fps=362 q=-0.0 size=N/A time=00:21:16.23 bitrate=N/A speed=15.1x    frame=30775 fps=361 q=-0.0 size=N/A time=00:21:23.57 bitrate=N/A speed=15.1x    frame=30946 fps=361 q=-0.0 size=N/A time=00:21:30.70 bitrate=N/A speed=15.1x    frame=31115 fps=361 q=-0.0 size=N/A time=00:21:37.75 bitrate=N/A speed=15.1x    frame=31288 fps=361 q=-0.0 size=N/A time=00:21:44.97 bitrate=N/A speed=15.1x    frame=31440 fps=360 q=-0.0 size=N/A time=00:21:51.31 bitrate=N/A speed=  15x    frame=31613 fps=360 q=-0.0 size=N/A time=00:21:58.52 bitrate=N/A speed=  15x    frame=31769 fps=360 q=-0.0 size=N/A time=00:22:05.03 bitrate=N/A speed=  15x    frame=31934 fps=360 q=-0.0 size=N/A time=00:22:11.91 bitrate=N/A speed=  15x    frame=32082 fps=359 q=-0.0 size=N/A time=00:22:18.08 bitrate=N/A speed=  15x    frame=32250 fps=359 q=-0.0 size=N/A time=00:22:25.09 bitrate=N/A speed=  15x    frame=32417 fps=359 q=-0.0 size=N/A time=00:22:32.05 bitrate=N/A speed=  15x    frame=32597 fps=359 q=-0.0 size=N/A time=00:22:39.56 bitrate=N/A speed=  15x    frame=32746 fps=358 q=-0.0 size=N/A time=00:22:45.78 bitrate=N/A speed=14.9x    frame=32928 fps=358 q=-0.0 size=N/A time=00:22:53.37 bitrate=N/A speed=14.9x    frame=33114 fps=358 q=-0.0 size=N/A time=00:23:01.12 bitrate=N/A speed=14.9x    frame=33293 fps=358 q=-0.0 size=N/A time=00:23:08.59 bitrate=N/A speed=14.9x    frame=33476 fps=358 q=-0.0 size=N/A time=00:23:16.22 bitrate=N/A speed=14.9x    frame=33665 fps=358 q=-0.0 size=N/A time=00:23:24.11 bitrate=N/A speed=14.9x    frame=33848 fps=358 q=-0.0 size=N/A time=00:23:31.74 bitrate=N/A speed=14.9x    frame=34026 fps=358 q=-0.0 size=N/A time=00:23:39.16 bitrate=N/A speed=14.9x    frame=34202 fps=358 q=-0.0 size=N/A time=00:23:46.50 bitrate=N/A speed=14.9x    [Parsed_ssim_16 @ 00000240ae5b4000] SSIM Y:0.994818 (22.855069) U:0.995527 (23.493769) V:0.994918 (22.939450) All:0.994953 (22.969483)
[out#0/null @ 00000240ade9ae00] video:14726KiB audio:268036KiB subtitle:0KiB other streams:0KiB global headers:0KiB muxing overhead: unknown
frame=34272 fps=358 q=-0.0 Lsize=N/A time=00:23:49.42 bitrate=N/A speed=14.9x    
